<svg xmlns="http://www.w3.org/2000/svg" viewBox="0 0 253.93 102.25"><defs><style>.cls-1{fill:#247ba0;}.cls-2{fill:#f95c39;}.cls-3{fill:#297d9f;}</style></defs><title>logo-bachelors-v4</title><g id="header"><path class="cls-1" d="M229.3,62.78a12.24,12.24,0,0,0,6.17,1.44c4.22,0,7.1-1.61,7.1-5.25,0-3.39-2.5-4.45-5.62-5.1l-.83-.18c-2.19-.44-3.43-.92-3.43-2.43S233.93,49,236.43,49A9.77,9.77,0,0,1,242,50.54V47.21a14.16,14.16,0,0,0-5.35-1c-4.21,0-7.09,1.55-7.09,5.15,0,3.36,2.5,4.42,5.62,5.07l.82.17c2.2.45,3.43.93,3.43,2.44s-1.2,2.4-3.77,2.4a10.31,10.31,0,0,1-6.31-2Zm-5.59-20.57h-3.15V59.35c0,3.16,1.57,4.73,4.63,4.73a6.06,6.06,0,0,0,2.05-.31V61a4.17,4.17,0,0,1-1.64.31c-1.24,0-1.89-.45-1.89-2.09Zm-15,19.4c-2.6,0-3.8-.85-3.8-2.4,0-1.71,1.44-2.5,3.5-2.84l4.08-.69V61.1a13.7,13.7,0,0,1-3.78.51m6.93-9.56c0-4.08-3.12-5.8-7.27-5.8a10.44,10.44,0,0,0-5.18,1.2v3.33A7.7,7.7,0,0,1,208.32,49c2.67,0,4.15,1.09,4.15,3.36v.82l-4.39.69c-3.74.58-6.31,1.85-6.31,5.24,0,3.64,2.91,5.11,7,5.11a17.45,17.45,0,0,0,3.7-.41h3.19Zm-27.26-9.84V57c0,5,2.37,7.23,6.86,7.23a10.65,10.65,0,0,0,4.08-.75V60.31a6.58,6.58,0,0,1-3.74,1.1c-2.6,0-4-1.2-4-4.7v-7.2h7.95V46.67h-7.95V42.21Zm-9.84,7.64V46.67h-3.15V63.81h3.15V55.89c0-5,2.13-6.28,5.87-6.28h1.33V46.67h-1.33c-3.5,0-5,1.37-5.7,3.18Zm-15.16-3.6c-4.84,0-8.16,3.12-8.16,9s3.32,9,8.16,9,8.16-3.12,8.16-9-3.33-9-8.16-9m0,15.23c-3.33,0-4.94-2.47-4.94-6.24S160,49,163.36,49s4.93,2.47,4.93,6.24-1.61,6.24-4.93,6.24M149,55.24c0,3.6-1.65,6.24-5.93,6.24a9.2,9.2,0,0,1-2.61-.38V49.41a8,8,0,0,1,2.61-.41c4.28,0,5.93,2.64,5.93,6.24m-8.54,8.53a12,12,0,0,0,3.29.45c5.21,0,8.47-3.43,8.47-9s-3.26-9-8.47-9a13.61,13.61,0,0,0-3.29.42h-3.15V68.34h3.15Z"/><path class="cls-2" d="M127.31,68.34V63.81c4.11-4.22,6.07-10.05,6.31-17.14h-3.05c-.18,6-1.58,10.62-4.7,14.6h-.14c-3.12-4-4.52-8.64-4.7-14.6h-3.18c.24,7.09,2.19,12.92,6.3,17.14v4.53Zm-24.82-13.1c0-3.6,1.64-6.24,5.93-6.24a9.18,9.18,0,0,1,2.6.37v11.7a8.23,8.23,0,0,1-2.6.41c-4.29,0-5.93-2.64-5.93-6.24M111,46.7a12,12,0,0,0-3.29-.45c-5.21,0-8.47,3.43-8.47,9s3.26,9,8.47,9a14.15,14.15,0,0,0,3.29-.41h3.16V42.21H111Zm-15.87,0H92V61.1a13.35,13.35,0,0,1-3.22.38c-4.32,0-4.73-2-4.73-5.66V46.67H80.89v9.42c0,5,1.23,8.13,7.2,8.13a19.07,19.07,0,0,0,3.9-.41h3.16ZM66.28,42.21V57c0,5,2.37,7.23,6.86,7.23a10.69,10.69,0,0,0,4.08-.75V60.31a6.58,6.58,0,0,1-3.74,1.1c-2.61,0-4-1.2-4-4.7v-7.2h8V46.67h-8V42.21ZM49.17,62.78a12.27,12.27,0,0,0,6.17,1.44c4.22,0,7.1-1.61,7.1-5.25,0-3.39-2.5-4.45-5.62-5.1L56,53.69c-2.19-.44-3.42-.92-3.42-2.43S53.8,49,56.3,49a9.77,9.77,0,0,1,5.52,1.54V47.21a14.16,14.16,0,0,0-5.35-1c-4.21,0-7.09,1.55-7.09,5.15,0,3.36,2.5,4.42,5.62,5.07l.82.17c2.2.45,3.43.93,3.43,2.44s-1.2,2.4-3.77,2.4a10.31,10.31,0,0,1-6.31-2Z"/><path class="cls-1" d="M1.37,45.09v1.53H4.11V63.81H7.32V46h0A43.93,43.93,0,0,1,17,44.1V63.81h4V44.1a43.15,43.15,0,0,1,9.7,1.83l0,0V63.81h3.21V46.63h2.74V45.09S27.94,41,19,41,1.37,45.09,1.37,45.09Z"/><path class="cls-2" d="M36.67,43.45S28.14,39.3,19,39.3,1.36,43.45,1.36,43.45V40.6L19,34.72l17.66,5.87Z"/><rect class="cls-1" x="1.37" y="65.5" width="35.31" height="2.91"/><path class="cls-3" d="M149.68,73.06h3.82a7.28,7.28,0,0,1,3.83.77,2.71,2.71,0,0,1,1.18,2.44,3,3,0,0,1-.58,1.88,2.61,2.61,0,0,1-1.67.94v.08a3.34,3.34,0,0,1,2,1,3.07,3.07,0,0,1,.63,2,3.3,3.3,0,0,1-1.21,2.71,5.19,5.19,0,0,1-3.36,1h-4.64Zm2.1,5.31h2a3.47,3.47,0,0,0,1.93-.42,1.61,1.61,0,0,0,.61-1.42,1.42,1.42,0,0,0-.66-1.31,4.1,4.1,0,0,0-2.08-.4h-1.82Zm0,1.7v4.07H154a3.37,3.37,0,0,0,2-.5,1.9,1.9,0,0,0,.67-1.6,1.71,1.71,0,0,0-.69-1.49,3.63,3.63,0,0,0-2.08-.48Z"/><path class="cls-3" d="M167.43,85.91,167,84.55h-.07a3.9,3.9,0,0,1-1.41,1.21,4.42,4.42,0,0,1-1.83.32,3.1,3.1,0,0,1-2.24-.77,2.93,2.93,0,0,1-.8-2.19,2.57,2.57,0,0,1,1.12-2.27,6.43,6.43,0,0,1,3.4-.83l1.68,0v-.52a2,2,0,0,0-.44-1.4,1.8,1.8,0,0,0-1.35-.46,4.86,4.86,0,0,0-1.43.22,11,11,0,0,0-1.32.52l-.67-1.48a7.4,7.4,0,0,1,1.73-.62,7.66,7.66,0,0,1,1.78-.22,4.2,4.2,0,0,1,2.8.81,3.17,3.17,0,0,1,.94,2.54v6.55Zm-3.08-1.41a2.57,2.57,0,0,0,1.81-.63,2.28,2.28,0,0,0,.68-1.76v-.84l-1.25,0a4.2,4.2,0,0,0-2.12.49,1.47,1.47,0,0,0-.67,1.33,1.31,1.31,0,0,0,.39,1A1.71,1.71,0,0,0,164.35,84.5Z"/><path class="cls-3" d="M175.71,86.08a4.31,4.31,0,0,1-3.36-1.28,6.55,6.55,0,0,1,.06-7.47A4.43,4.43,0,0,1,175.87,76a6.5,6.5,0,0,1,2.77.57L178,78.24a6.32,6.32,0,0,0-2.16-.51c-1.69,0-2.53,1.12-2.53,3.35a4,4,0,0,0,.63,2.46,2.17,2.17,0,0,0,1.84.82,5.25,5.25,0,0,0,2.61-.69v1.81a4.14,4.14,0,0,1-1.18.46A6.72,6.72,0,0,1,175.71,86.08Z"/><path class="cls-3" d="M189.25,85.91h-2.07v-6a2.63,2.63,0,0,0-.46-1.68,1.74,1.74,0,0,0-1.43-.55,2.3,2.3,0,0,0-1.92.78,4.32,4.32,0,0,0-.61,2.6v4.83H180.7V72.23h2.06V75.7a16.37,16.37,0,0,1-.1,1.79h.13A2.86,2.86,0,0,1,184,76.4a3.77,3.77,0,0,1,1.76-.39q3.53,0,3.53,3.56Z"/><path class="cls-3" d="M196.37,86.08a4.73,4.73,0,0,1-3.55-1.32,5,5,0,0,1-1.28-3.64,5.53,5.53,0,0,1,1.19-3.75A4.09,4.09,0,0,1,196,76a4,4,0,0,1,3,1.17,4.44,4.44,0,0,1,1.12,3.22v1.11h-6.48a3.21,3.21,0,0,0,.77,2.18,2.64,2.64,0,0,0,2,.76,8.11,8.11,0,0,0,1.6-.16,8.87,8.87,0,0,0,1.6-.54v1.67a6.55,6.55,0,0,1-1.53.51A9.43,9.43,0,0,1,196.37,86.08Zm-.38-8.5a2.08,2.08,0,0,0-1.58.62,3,3,0,0,0-.7,1.82h4.41a2.74,2.74,0,0,0-.58-1.83A2,2,0,0,0,196,77.58Z"/><path class="cls-3" d="M204.56,85.91H202.5V72.23h2.06Z"/><path class="cls-3" d="M216.14,81a5.28,5.28,0,0,1-1.23,3.72,4.36,4.36,0,0,1-3.4,1.33,4.67,4.67,0,0,1-2.41-.61,4.05,4.05,0,0,1-1.6-1.77,6,6,0,0,1-.57-2.67,5.25,5.25,0,0,1,1.22-3.69A4.39,4.39,0,0,1,211.57,76a4.28,4.28,0,0,1,3.34,1.36A5.23,5.23,0,0,1,216.14,81Zm-7.08,0c0,2.24.83,3.37,2.49,3.37S214,83.27,214,81s-.83-3.33-2.48-3.33a2.13,2.13,0,0,0-1.89.86A4.46,4.46,0,0,0,209.06,81Z"/><path class="cls-3" d="M223.44,76a4.85,4.85,0,0,1,1,.09l-.2,1.92a4,4,0,0,0-.92-.1,2.67,2.67,0,0,0-2,.81,2.94,2.94,0,0,0-.77,2.1v5.08h-2.06V76.19h1.62l.27,1.71h.1a4,4,0,0,1,1.26-1.38A3,3,0,0,1,223.44,76Z"/><path class="cls-3" d="M232.8,83.14a2.53,2.53,0,0,1-1,2.18,4.94,4.94,0,0,1-3,.76,6.94,6.94,0,0,1-3.12-.59V83.71a7.62,7.62,0,0,0,3.19.79c1.27,0,1.91-.38,1.91-1.15a.93.93,0,0,0-.21-.62,2.58,2.58,0,0,0-.7-.51,12.8,12.8,0,0,0-1.34-.59,6.3,6.3,0,0,1-2.27-1.3,2.41,2.41,0,0,1-.6-1.69,2.23,2.23,0,0,1,1-1.94A4.77,4.77,0,0,1,229.4,76a7.65,7.65,0,0,1,3.24.7L232,78.26a7.24,7.24,0,0,0-2.64-.65c-1.09,0-1.64.31-1.64.93a1,1,0,0,0,.43.78,9.23,9.23,0,0,0,1.86.87,8.64,8.64,0,0,1,1.75.85,2.61,2.61,0,0,1,.81.89A2.67,2.67,0,0,1,232.8,83.14Z"/></g></svg>